<svg xmlns="http://www.w3.org/2000/svg" viewBox="0 0 500 500"><path d="M295 199.76l-1-2-21.43-41.65-89 31.75 4.69 13.54a40.2 40.2 0 012.87 7.31c1 2.95 2.1 6.29 3.59 9.92a30.48 30.48 0 007.06 10 41.48 41.48 0 005.61 4.55 23.5 23.5 0 01.38-10.63 1 1 0 01.33-1.09 18.56 18.56 0 011.28-3c1-1.8 2.08-2.61 3.28-2.42.8.13 1.67.64 2.6 2.48l21.6-8.63a1 1 0 01.74 1.86l-21.6 8.7a59.49 59.49 0 012.27 9.29 32.31 32.31 0 001.73 5.93 49.19 49.19 0 006.18 11.2l67.92-28.6 1-.41 1-.42 6.55-2.76-6.67-13zm-95.05-1.54a1.12 1.12 0 01-.35.06 1 1 0 01-.94-.65 1 1 0 01.58-1.28L227 186a1 1 0 011.28.59 1 1 0 01-.58 1.28zm32.7 1.66l-28.13 10.84a.92.92 0 01-.36.07 1 1 0 01-.94-.64 1 1 0 01.58-1.29L231.92 198a1 1 0 11.72 1.86zm12.76 9.19l-11.12-26.13L266.86 171 279 195.89zm46.5 65.68a68.65 68.65 0 007-1.25 2.21 2.21 0 00-.05.25 58.21 58.21 0 00-1.08 8.95 78.67 78.67 0 01-16.67-.08l-1.26-.14-1.32-.16c-2.64-.35-5.46-.83-8.45-1.48-20.74-4.5-34.25-10.84-45.09-27.52-.66-1-1.27-2-1.84-3-.18-.29-.34-.58-.51-.87s-.33-.59-.49-.88c-5.46-9.84-6-16.39-5.91-19.28.05.26.09.51.14.77a34.65 34.65 0 001.84 6.31 51.61 51.61 0 006.19 11.25c.19.28.4.55.61.83s.4.55.62.82c.44.57.91 1.14 1.39 1.72a58.35 58.35 0 004.72 5 60.85 60.85 0 006.12 5A80.84 80.84 0 00283 275.31h3.31c.41 0 .82 0 1.22-.06 1.47-.18 2.93-.32 4.37-.5zM251.26 74.67A7.14 7.14 0 01250 70.3a10.85 10.85 0 013.83-8.3 6.45 6.45 0 012.17-1.15c3.34-1 6.06 1.67 6.06 5.9s-2.67 8.45-6 9.45a4.21 4.21 0 01-4.8-1.53zm-23 2c-.05-4.28 2.67-8.56 6-9.5s6.06 1.72 6.06 6-2.67 8.51-6 9.51-6.11-1.76-6.11-6.04zm127.87 71.6q.57 3.51 1.49 7.34c-2.79-.55-5.86-1.64-6.25-3-.37-1.27 2.12-3.09 4.71-4.37zM82.28 306.14c11.91-3.64 23.5-6.77 34.67-9.5L60 319.09a6.41 6.41 0 014.23-7.17c5.87-2.01 11.88-3.92 18.05-5.78zm89.16-31.87l1.56.31-20.11 7.93-.42-.92c1.12-.59 2.28-1.17 3.47-1.75a118.62 118.62 0 0113.12-5.39l.19.52-.19-.52a4.6 4.6 0 012.38-.18zm265 154.09a1 1 0 01-.94 1.06h-.06a1 1 0 01-1-.95v-.46q0-.51-.06-1.2c-.76-14.56-4.47-86.16-4.88-97.95v-1a6 6 0 010-.63.89.89 0 01.12-.39 1 1 0 011-.52 1 1 0 01.69.36 1.06 1.06 0 01.22.71v1.28c.31 9.2 3.13 64.33 4.81 96.6 0 .42.05.84.07 1.25l.06 1.24zM403.48 438a1 1 0 11-1.67 1.11l-6.6-9.86-.53-.79a.65.65 0 01-.09-.23 1 1 0 01.22-1 .75.75 0 01.19-.23 1 1 0 01.88-.09.92.92 0 01.5.37l.7 1 .72 1.09zm26.21-373.19c-.38.54-.94 1.39-1.6 2.54l-.51.92c-.15.29-.31.59-.47.91A41.32 41.32 0 00423 92.54c.84 6.91-3 12.13-7.76 15.89l-3.1-8.43a57 57 0 01-1-5.71 1 1 0 10-2 .25 60.08 60.08 0 004.08 15.36 51.63 51.63 0 01-12.33 5.88c-6.68-17.65-4.77-35.65 4.88-43l16.16-6.64c.38-.17.77-.32 1.16-.46s.76-.25 1.14-.35.82-.19 1.24-.26a16.55 16.55 0 014.22-.26zM48.81 381.19a21.76 21.76 0 005.51 10.37 6.82 6.82 0 01-3.42-.86c-2.17-1.16-5.45-4.27-5.91-12.42 0-.35 0-.7-.05-1.07s0-.71 0-1.07v-1.71c.44-.49.72-.82.78-.89a1 1 0 00-.14-1.41 1 1 0 00-.51-.2 1.13 1.13 0 00-.26 0 1 1 0 00-.49-.29 35.48 35.48 0 011.1-3.64 20.55 20.55 0 012.22-4.56c0 1.14 0 3.84.12 6.86.09 2.25.23 4.68.43 6.78 0 .35.07.69.11 1s.08.71.13 1a19.89 19.89 0 00.38 2.11zm29.54 1.34a4.41 4.41 0 01-3.48.39c-3.07-.64-7.21-3.11-10.82-6.89l-.72-.79-.69-.79a29.82 29.82 0 01-3.39-5 1 1 0 00-1-.5 15.63 15.63 0 01-.25-3.36c0-.64.08-1.26.15-1.83a19.75 19.75 0 01.52-2.62c.29.56.59 1.14.92 1.72a60 60 0 006.92 10l.69.79.71.79.27.3a36.9 36.9 0 0010.17 7.79z" fill="#fff"/><path d="M174 382.64c-.1 1.27-.15 2.59-.18 3.94s0 2.56 0 3.89c-.35-1.31-.72-2.64-1.09-4a221.39 221.39 0 01-4.43-29.51c-6.05-2.32-11.33-4.48-16.58-6.8-3.78-1.56-7.57-3.22-11.42-5 .81 0 1.67.06 2.58.07h2.47q3.59 1.59 7.16 3.07c5.41 2.39 10.83 4.61 17.1 7a1 1 0 01.64.86 214.85 214.85 0 003.75 26.48zm25.58-184.36a1.12 1.12 0 00.35-.06l27.74-10.4a1 1 0 00.58-1.28A1 1 0 00227 186l-27.75 10.4a1 1 0 00-.58 1.28 1 1 0 00.92.6zm3.62 11.87a1 1 0 00.94.64.92.92 0 00.36-.07l28.13-10.84a1 1 0 10-.72-1.86l-28.13 10.84a1 1 0 00-.57 1.29zm74.6-140.4c3.33-1 6-5.17 6-9.34s-2.72-6.78-6.06-5.84-6 5.17-6 9.34 2.73 6.78 6.07 5.84zM61.29 276l-2-39.59a6.52 6.52 0 01-5.77-5.57c-.67-4.19 2.14-10.26 6.76-12.92a12.63 12.63 0 01-5-6.39c-1.79-4.63-1.55-10-.29-12.29 1.33-2.49 4.23-3.15 6.83-3.17-3.3-3-8.34-8.65-3.72-15.27a5.69 5.69 0 015.56-1.94c1.89.33 5.19 1.82 7.45 7.86l55.29-19.17a9.23 9.23 0 012.15-5.84 5.87 5.87 0 014.66-2.29 4.33 4.33 0 011.2.23c-.38-4.52 1.18-8.68 3.25-9.83a3.06 3.06 0 012.57-.17 7 7 0 013.49 3.43c2.9-2.31 5-2.66 6.29-2.52a3.12 3.12 0 012.19 1.11c2.63 4.24-1.16 9.24-4.42 13.12h.45a3.53 3.53 0 012.79 2.14c.76 1.64.45 4.06-.67 6.09 5.11.52 9.11 4.66 10 10.67 1.17 7.78-2.81 16.93-9.3 21.56l1.55 29.91a13.8 13.8 0 018.22 6.83 12.21 12.21 0 011 9.52c-1.67 4.43-7.84 8.3-14.62 7.4-1.39 4.47-4.47 8.15-8 9.53a7.09 7.09 0 01-9.06-3.17l-50.76 19.78c-5 7.48-10.41 12.39-14.22 12.84a3.69 3.69 0 01-.56 0 3.21 3.21 0 01-2.29-.85c-1.94-1.79-1.65-6.34-.88-10.39a5.09 5.09 0 01-3.25-.27 3.07 3.07 0 01-1.72-2.06c-.46-2.26 1.54-6.27 4.83-8.32zm-2.88 8a1.07 1.07 0 00.63.71 4.08 4.08 0 003.3-.35 1.07 1.07 0 01.43-.09 1.17 1.17 0 01.26 0 1 1 0 01.36.18 1 1 0 01.35 1c-1.42 6.27-1 9.39-.07 10.22a1.48 1.48 0 001.25.29 3.93 3.93 0 00.63-.13c2.76-.79 7.44-4.68 12.34-12.1a1 1 0 01.47-.38l51.81-20.24a1 1 0 011.28.52c1.34 3 4 4.13 7 3 3.16-1.23 6-4.86 7.07-9.05a1 1 0 011.16-.73c6 1.17 11.85-2.21 13.27-6a10.18 10.18 0 00-.88-7.89 11.84 11.84 0 00-7.66-6 1 1 0 01-.75-.92L149 204.78a1 1 0 01.45-.88c6.06-4 10-12.79 8.9-19.92-.87-5.78-4.85-9.4-9.88-9a1 1 0 01-1-.55 1 1 0 01.16-1.12c1.6-1.74 2.08-4.34 1.5-5.57a1.52 1.52 0 00-1.25-1 3.65 3.65 0 00-3.08 1.59 1 1 0 01-1.6-1.2 35.56 35.56 0 012.26-2.82c3-3.52 7.05-8.33 5-11.61-.31-.3-2.46-1-6.49 2.66a1 1 0 01-.89.24 1 1 0 01-.7-.6 8 8 0 00-1.81-2.82 3.11 3.11 0 00-1.08-.71 1.11 1.11 0 00-.93 0c-1.36.77-3.1 5.2-1.85 10.17a1 1 0 01-1.8.8 2.36 2.36 0 00-1.87-1.12 3.91 3.91 0 00-3 1.6 7.35 7.35 0 00-1.68 5l.52 1.54.4 1.16a1 1 0 01-1.76.91 5.87 5.87 0 01-.92-2l-54.89 19 .16.55a1 1 0 01-.69 1.23H71a1 1 0 01-1.1-.68l-.45-1.44v-.12c-1.92-5.74-4.65-7.07-6.19-7.34a3.73 3.73 0 00-3.57 1.12c-3.61 5.17.29 9.73 3.24 12.47.47.44.92.83 1.31 1.17s.83.74 1.08 1a1 1 0 01.17 1.15 1 1 0 01-1 .54 16.56 16.56 0 00-3.28-.17c-1.8.09-3.68.59-4.48 2.09-.92 1.68-1.28 6.29.4 10.62A10.07 10.07 0 0063 217a1 1 0 01.67 1 1 1 0 01-.7.94c-5.08 1.56-8 8.12-7.48 11.62a4.81 4.81 0 001.46 2.77 5.2 5.2 0 00.76.54l.13.08a4.66 4.66 0 002.13.53.66.66 0 01.21 0 .74.74 0 01.26 0 7 7 0 002.52-.7 1 1 0 11.87 1.8 9.46 9.46 0 01-2.55.82l2.06 40.14a1 1 0 01-.52.93c-3.2 1.63-4.69 5.16-4.41 6.44zm43.89 49a3 3 0 002.19.85h.58c2.21-.31 5.71-2.42 10.41-10.26 0 6.39 1.06 7.48 2.31 7.58 2.11.16 6.53-3.87 8.15-14.23l42.21-16.41a1 1 0 10-.73-1.86l-15 5.85-27.71 10.77a1 1 0 00-.63.79c-1.32 9.24-4.88 12.75-6 13.07-.23-.4-.87-2.23-.46-9.34v-.26a1 1 0 00-1.89-.52c-4.54 8.6-7.83 11.47-9.71 12.41a4.61 4.61 0 01-1.25.43 1.33 1.33 0 01-1-.17c-.28-.51-.14-2.95 1.2-6.81l.12-.36a46.1 46.1 0 012.09-4.86 1 1 0 00.06-.75 1 1 0 00-.51-.59 1 1 0 00-1.34.45 48.89 48.89 0 00-2.1 4.86L73.94 335l-7.53 3a1 1 0 00.36 1.93.92.92 0 00.36-.07L102.5 326c-.96 3.39-1.1 6-.2 7zm-41.92-12a.92.92 0 00.36-.07l65.83-26a1 1 0 10-.74-1.86l-8.88 3.5L60 319.09a1 1 0 00.37 1.93zm115.06-46.34a1 1 0 00-1.29-.56l-1.15.45-20.11 7.93-12.44 4.91a1 1 0 00.37 1.93 1.21 1.21 0 00.37-.07L174.88 276a1 1 0 00.56-1.31zm294.45-15.23c-.19 1.56-.82 6.93-1.61 13.26a1 1 0 01.27.75 16.27 16.27 0 01-.43 2.45c-.33 1.89-.67 3.9-1 5.95-.9 6.93-1.82 13.45-2.4 16.36a1.14 1.14 0 010 .26c0 .09-.54 2.77-1.36 7 0 .14-.05.3-.07.44v.09c-2.25 11.49-6.6 33.56-9.48 47.48-2.46 11.89-4.95 31.28-6.78 45.43-1.2 9.33-2.14 16.71-2.68 18.88-1 4-5.31 7.93-7.9 10l-.06-1.24c0-.41-.05-.83-.07-1.25-1.68-32.27-4.5-87.4-4.81-96.6v-1.28a1.06 1.06 0 00-.22-.71 1 1 0 00-.69-.36 1 1 0 00-1 .52.89.89 0 00-.12.39 6 6 0 000 .63v1c.41 11.79 4.12 83.39 4.88 97.95q0 .69.06 1.2v.46a1 1 0 00.47.78c.12 3.31.45 14.83-.74 19-1.34 4.74-10.11 8.45-15.28 8.45a8.47 8.47 0 01-1.28-.09c-5.13.44-11.56-.85-17.66-3.54-12.26-5.43-19.72-14.55-17-20.78 1.5-3.45 5.82-5.28 11.85-5.12a1 1 0 00-.22 1 .65.65 0 00.09.23l.53.79 6.6 9.86a1 1 0 001.67-1.11l-5.72-8.53-.72-1.09-.7-1a.92.92 0 00-.5-.37c-6.27-10.67-18.86-33.25-24.48-51.7a265 265 0 01-9.33-40.58.93.93 0 01-.14-.36l-4.5-25.76a175.34 175.34 0 01-36.46 14.78 1.07 1.07 0 01-.68-.06 41.22 41.22 0 01-11.22-8.75l-.69-.76a111.44 111.44 0 01-15.5 1.09 116 116 0 01-51.54-12.24l-1.19-.59-1.16-.6c-2.56-1.33-5.13-2.77-7.72-4.35-.59-.35-1.16-.71-1.73-1.06l-.84-.52-.85-.55q-2.47-1.56-4.8-3.15l-.87-.61-.9-.62-.52-.37c-.75-.53-1.49-1.07-2.21-1.61-.38-.27-.75-.55-1.12-.83l-1.11-.84a141.32 141.32 0 01-22.42-21.73c-16.25-19.4-16.31-34.69-16.34-42v-1.78a.92.92 0 01.13-.49 27.32 27.32 0 01-.74-7.23c.29-3.82 1.25-6.23 2.88-7.16a2.93 2.93 0 011.84-.4 2.21 2.21 0 01.4.07c.06-.42.14-.83.23-1.22.57-2.62 1.57-4.63 3-5.11a2 2 0 01.35-.09l-8-23.21c-.92-2.75.24-5.61 2.57-6.39L262.81 142a5.36 5.36 0 016.17 2.89l25 48.5-.11-13.43c-2.36-.61-4.78-2-5.75-3.94a1 1 0 01.46-1.33.93.93 0 01.54-.08 1 1 0 01.8.53 6.72 6.72 0 003.94 2.73c.33.1.66.19 1 .26s.67.11 1 .14h.23c1 .06 2.71 0 3.49-1.25a2.39 2.39 0 00.23-2.11c-.48-1.56-2.1-3.22-4-4.58-.33-.23-.66-.46-1-.67a21.648 21.648 0 00-2.66-1.42 1 1 0 01.38-1.91h1.26c.34 0 .67 0 1-.06l1-.08c8.07-.77 14-3.86 14.44-7.83a5.42 5.42 0 00-2.28-4.8c-1.36-1.09-5.27-3.37-12.06-.92h-.21a1 1 0 01-1-.49v-.06a1 1 0 010-.87 1 1 0 01.38-.42l.62-.36c11.8-6.9 17.12-12.86 16.24-18.23a1.41 1.41 0 00-1-1.1c-2.36-1-8.4.4-15.4 4.77l-1 .64-.78.52a1.45 1.45 0 01-.22.09 1 1 0 01-.45.07 1 1 0 01-.46-1.81l.9-.6-.34-43.49a14.55 14.55 0 01-1.55-.91 7.53 7.53 0 01-6.83 3.76c2.16 5 2.34 10.16.34 12.81-2.61 3.43-8.07 1.51-11.11-.62a16.26 16.26 0 01-5.73-7.86c-1.17 3-3.44 7.55-7.1 9.64a8.38 8.38 0 01-4.18 1.14 8.57 8.57 0 01-3.8-.92c-3.38-1.68-5.83-5.39-6.89-10.32L46.44 159.1a1 1 0 01-.3 0 1 1 0 01-.29-1.95L246 96a1 1 0 01.85-1.06 1.17 1.17 0 01.33 0 1 1 0 01.67.47 1 1 0 01.13.37c.07.55.17 1.08.28 1.6.91 4.41 3 7.7 5.86 9.12a6.35 6.35 0 006.11-.17c4.94-2.82 7.11-11.35 7.14-11.44a1 1 0 011-.76 1 1 0 011 .77c1.1 4.49 3.13 7.86 5.88 9.75 2 1.37 6.56 3.42 8.36 1 1.53-2 1.44-7.22-1.36-12.43a1 1 0 01.1-1.1 1 1 0 011.06-.33 5.68 5.68 0 007-3.4 1 1 0 01.67-.56 1 1 0 01.85.19q.63.48 1.26.87c.34.21.67.38 1 .55s.67.32 1 .45a8.81 8.81 0 007.68-.45 12.31 12.31 0 006-11.64c-.47-4.43-3.6-7.75-8.83-9.33a1 1 0 01.26-2c3.88-.14 7.74-4.56 8.27-9.45a7.29 7.29 0 00-2.1-6.34 4.6 4.6 0 00-4.33-.92 1 1 0 01-.93-1.71c9.63-8.84 11.23-17.32 10.25-19.2a1.7 1.7 0 00-1.31-.61c-2.84-.36-9.44 1.8-16.08 9.21a1 1 0 01-1.3.16 1 1 0 01-.34-1.28 9.72 9.72 0 00.84-7.5 2.09 2.09 0 00-1-1.23c-1.07-.4-3.95 1.36-5.5 5.42a1 1 0 01-1.93-.41c.4-7.21-1.1-11.42-2.29-11.57h-.08c-1.65 0-6.08 5.3-8.67 15.49a1 1 0 01-.92.75 1 1 0 01-1-.65c-2.87-7.68-6.81-11.91-9.45-12.69a2.07 2.07 0 00-1.91.19c-2.12 1.52-3.41 9-2.21 17.92 0 .33.09.66.14 1 0 .16 0 .32.07.48a1 1 0 01-.1.57 1 1 0 01-.73.57 1.09 1.09 0 01-.36 0 1 1 0 01-.35-.15L65.73 98.93c.29 1.28.44 2.14.47 2.28a1 1 0 01-.82 1.16 1 1 0 01-.52-.07 1 1 0 01-.63-.75c-.1-.57-.24-1.28-.42-2.07l-.22-1c-.08-.36-.16-.64-.25-1-1.26-4.9-3.63-11.51-6.9-13A3.52 3.52 0 0053 85c-8.07 5.09-3.27 16.37-3.22 16.48a1 1 0 01-1.83.81c-1.48-3.34-6.34-12.16-11-12.83-1.57-.22-3 .48-4.45 2.17-3.07 3.65-3.29 8-.65 12.86A26.55 26.55 0 0036.9 111a1 1 0 01-1.23 1.58s-2.67-1.81-4.89-.93c-1.51.61-2.58 2.36-3.17 5.2-2 9.4 2.63 13 2.68 13.07a1 1 0 01.4.83v.64l-.59 17.48a1 1 0 01-.49.83 1 1 0 01-1 0s-4.51-2.53-7.61-1.2c-1.4.6-2.36 2-2.85 4-1.6 6.75 7.73 15.53 11.58 18.83l1 .84.61.48a1 1 0 01-.24 1.73l-.35.15c-.24.11-.58.26-1 .47-3 1.49-9.76 5.52-7.71 10.64a4.79 4.79 0 003 3.15c1.71.49 3.65-.3 4.84-.94a11.53 11.53 0 001-.6l.13-.1a1 1 0 01.86-.14h.09a1 1 0 01.45.32 1 1 0 01-.21 1.4l-.31.22L33 354.77c0 .82 0 1.61.11 2.4.1-.11.19-.21.3-.31a1 1 0 011.41 0 1 1 0 010 1.42l-.12.12-1.31 1.35-.86.92c-.28.3-.56.62-.84.93-5.26 5.93-10.58 14-5.87 18.72A5.34 5.34 0 0030 382c3.62-.18 7.67-3.24 10.51-5.88l.75-.71.72-.71 1-1c.73-.78 1.17-1.31 1.18-1.33a.74.74 0 01.19-.16l-.12-.17-.24-.34h.12l.18.06a1 1 0 01.49.29 1.13 1.13 0 01.26 0 1 1 0 01.51.2 1 1 0 01.14 1.41c-.06.07-.34.4-.78.89v2.78c0 .34 0 .72.05 1.07.46 8.15 3.74 11.26 5.91 12.42a6.82 6.82 0 003.42.86 2.3 2.3 0 001.15-.26c1.83-1.45 4.28-5 3.44-13.26 0-.33-.07-.67-.11-1s-.1-.67-.16-1a55.85 55.85 0 00-1.23-5.86A1 1 0 0158 369a.78.78 0 01.22 0 1 1 0 011 .5 29.82 29.82 0 003.39 5l.69.79.72.79c3.61 3.78 7.75 6.25 10.82 6.89a4.41 4.41 0 003.48-.39c1.47-1.18 2.67-5.28 2-9.85a19.45 19.45 0 00-.73-3.11c-.1-.31-.22-.63-.34-.95s-.25-.61-.39-.92c-1.56-3.43-4.61-7.25-10.56-9.7a1 1 0 01-.45-.41 1 1 0 01-.1-.9 1 1 0 011.31-.54c6.58 2.71 9.94 7 11.65 10.79l54-22.38 2.2-.91 1.26-.52.13-.06 1.12-.46 18.07-7.49 1.62-.67 1.61-.67 40.38-16.73 1.23-.51 1.17-.48 8.45-3.5 1.53-.64.16-.06 1.33-.55 6.79-2.82 1.36-.56 1.37-.57 13.87-5.74 1.09.63 1.09.63-17.29 7.16q-2 4.29-4.1 8.5a199.53 199.53 0 01-13 24.29c-1.93 3.2-3.75 6.21-5.55 9.49l-.27.56 1.59-4.91 1.4-4.31 1.12-1.86a200.16 200.16 0 0012.89-24.11q1.6-3.24 3.15-6.51l-7.16 3-.51.22-1 .42-1.58.65-7.54 3.13a19 19 0 01-2.3 4.29c-7.07 10.33-10.24 12.38-14.63 15.21l-.26.17a6.75 6.75 0 01-4.51 1.09l-.75-.1c.57-.28 1.13-.56 1.65-.86a16.86 16.86 0 002.69-1.92l.1-.06c4.19-2.71 7.22-4.66 14.08-14.68a15.94 15.94 0 001.22-2l-35.65 14.71c1 .19 1.95.39 2.91.56 4.47.89 8.71 1.6 12.69 2.15-.53.26-1.09.52-1.67.77s-1.21.5-1.86.73q-4.59-.7-9.54-1.68c-1.9-.35-3.86-.75-5.83-1.17l-17.87 7.4-1.13.47-1.27.53-1.26.52-.72.3-57.25 23.71a20.49 20.49 0 01.86 3.6c.68 4.87-.51 9.9-2.77 11.69a6.09 6.09 0 01-5.16.8c-3.53-.74-8.34-3.63-12.37-8l-.77.32-.47.19c1.07 9.58-1.93 13.77-4.13 15.52a4.24 4.24 0 01-2.58.7 9.07 9.07 0 01-4.18-1.1c-2.64-1.41-6.7-5.19-7-15-.21-.1-.41-.21-.61-.32-3.08 2.93-7.78 6.59-12.2 6.81h-.42a7.27 7.27 0 01-5.3-2.23c-4.77-4.77-2.32-12.77 6.88-22.71a34.78 34.78 0 01-.29-4.27l-1.16-164.68a9.47 9.47 0 01-3.72.87 6.31 6.31 0 01-1.66-.22 6.65 6.65 0 01-4.28-4.34c-2.69-6.71 5.2-11.46 8.65-13.17-3.82-3.18-14.58-13-12.65-21.17.65-2.74 2-4.56 4-5.42 2.78-1.19 6.06-.17 7.92.62l.54-16.11c-1.28-1.23-5-5.68-3-14.71.74-3.54 2.22-5.78 4.4-6.65a5.76 5.76 0 012.68-.35c-3.38-4.2-7.83-12-1.86-19.12 1.88-2.23 4-3.18 6.27-2.86 3.6.52 6.88 4.31 9.18 7.82-.25-4 .69-8.92 5.57-12a5.44 5.44 0 015.37-.56c4.19 1.88 6.75 9.39 8 14.24l191.07-54.27c-1.3-9.38-.08-17.89 3-20.08a4 4 0 013.66-.5c3.37 1 6.94 5.2 9.64 11.2 2.65-8.47 6.87-14.51 10.13-14.17 2.63.33 3.88 4.67 4.09 9.71 2-2.54 4.44-3.66 6.1-3a3.92 3.92 0 012.12 2.37 9.91 9.91 0 01.42 5C301.25 28 307 26 310.33 26.37a3.38 3.38 0 012.83 1.63c1.58 3-.74 11.51-8.73 19.73a6.44 6.44 0 013.28 1.52 9.25 9.25 0 012.78 8.06 13.36 13.36 0 01-7 10.42c5.66 2.77 7 7.25 7.3 9.9a14.38 14.38 0 01-7 13.6 10.75 10.75 0 01-8.62.84l.32 41.42c6.58-3.89 13-5.64 16.19-4.28a3.38 3.38 0 012.15 2.6c.92 5.62-3.2 11.29-12.93 17.66a12.07 12.07 0 018.25 2.44 7.41 7.41 0 013 6.61c-.61 4.94-7 8.66-16.08 9.56 2.56 1.65 4.89 3.89 5.6 6.2a4.37 4.37 0 01-.46 3.77 5.33 5.33 0 01-4.74 2.19h-.64l.17 17.06 9 17.43a1 1 0 01.05.79.93.93 0 01-.55.58l-8.3 3.5.23 30.21c.06 7.73-2.77 16-7.45 23.24a67.52 67.52 0 0010.41-1.71 81.36 81.36 0 013.61-11.61 1 1 0 011.1-.61c.16 0 16.8 2.59 32.44-15 12.67-14.29 21.83-19.46 29.92-24l1-.58a1 1 0 01-.46-.54 1 1 0 01.38-1.16l10.34-7a1 1 0 01.56-.18 24.19 24.19 0 013.5.39c4.82-2.65 9.8-5.2 13.26-6.92a23.68 23.68 0 00-1.44-6 23.84 23.84 0 01-20.15 9.17 1 1 0 01-.52-1.77c5.87-4.76 8.08-11.61 6.64-21.32-7-3-17.09-10.06-21.49-26.42-2.57-.4-7.87-1.59-8.73-4.63s3.74-5.7 6.37-6.92a80.79 80.79 0 01-.3-22.36c-3.17-12.57-4-25-2.35-36.31 2.56-17.28 10.68-29.78 22.86-35.21s26.9-3.09 41.46 6.57c2.07 1.38 4.1 2.9 6.09 4.51 12.69-3.46 29 8.11 37.55 27.16 6.8 15.33 6.79 31.51.32 40.93 2.33 14.49 1.42 28.11-2.49 39.14 9.68 6.39 15.21 15.37 17.53 28.18a328.05 328.05 0 014.46 35.35c.78 10.59-2.72 18.65-10.96 25.26zm9-25.2a329.07 329.07 0 00-4.44-35.13c-2.17-12-7.32-20.53-16.29-26.62a46.36 46.36 0 01-4.9 9.24 41.51 41.51 0 014 4.27c4.32 5.3 9.57 14.44 10 27.9.53 15-3.31 55.05-4.93 71a53.29 53.29 0 003.32-7.85c1.19-9.32 2.22-18.06 2.24-18.23a.91.91 0 01.1-.33l2.68-17.88a1 1 0 012 .29l-2.31 15.49c6.53-5.9 9.18-12.83 8.54-22.12zm-147 83.51a26 26 0 01-8.85-7.26c-.43-.53-.85-1.09-1.27-1.68a40.74 40.74 0 01-6-13.74 70 70 0 01-.92-27.47c.14-.88.29-1.72.44-2.5.43-2.26.89-4.06 1.23-5.29a32.29 32.29 0 01-11.92 1.36 79.2 79.2 0 00-3 9.57c-.1.41-.2.82-.29 1.23l-.21 1-.06.29a59.31 59.31 0 00-1.21 9.19c-.47 9.54 1.66 18.14 6.43 25.43a41.25 41.25 0 002.87 3.84c.5.6 1 1.18 1.52 1.72l.72.73a39.39 39.39 0 009.41 7.14c3.82-1.04 7.58-2.25 11.13-3.53zm2.7-1a176.26 176.26 0 0022.51-10.34 1 1 0 01.56-.58c28.51-11.35 31.82-29.19 31.85-29.37a1 1 0 012 .33c-.08.51-1.57 8.73-11.2 17.66 1.86 3.06 10.31 15.19 28.57 16.31.9.06 1.83.08 2.75.08-.63-6.78-5.21-53-14.47-69.59-9.47-17-20.93-20.65-26.18-21.43-1.14.67-2.3 1.33-3.5 2-7.95 4.49-16.95 9.58-29.41 23.61-6.67 7.52-13.46 11.53-19.22 13.64-.08.25-.19.63-.32 1.1-.24.87-.55 2.08-.88 3.58-.17.8-.35 1.68-.52 2.63a69.26 69.26 0 00.59 28.24 37.92 37.92 0 006.13 13.55c.43.59.87 1.14 1.3 1.65a23.36 23.36 0 008.52 6.54l.6.23a1 1 0 01.34.2zm44-104.14l-1.91 1.29-5.68 3.87 1.1.17c.44.08.92.18 1.41.29 6.25 1.47 16.56 6.34 25.32 22.05 9.65 17.29 14.15 64 14.74 70.53l.06.7a.85.85 0 010 .32 1 1 0 01-.5.65l-.69.37-5.74 3 10.27-.72c.07-.82.13-1.68.19-2.55l.06-1c0-.34 0-.68.07-1 1.39-24.22-.78-64.57-16.76-85.61a31.28 31.28 0 00-18.43-11.82c-.57-.12-1.09-.22-1.54-.29-.72-.11-1.29-.16-1.68-.19zm6.13-.94a33 33 0 0117.39 12.05c1.88 2.47 8.37 12 13 30.79 4.12 16.72 5.52 35.47 4.22 55.81a68.79 68.79 0 0016.44-4.25c8-3.17 13.89-6.52 19-10.74.67-9.8 4.53-69.34.76-84.49-2.48-10-7.45-14.27-12.41-16.49a38.81 38.81 0 01-3.59 3.34c-4.42 4.18-9.81 8.21-15.56 10.13A90.27 90.27 0 01397 212h-1.84a1 1 0 01-.89-1.38 12.61 12.61 0 00.86-4.29 310.45 310.45 0 00-10.39 5.37zm-5.54-29.9a90.14 90.14 0 00-5.84-17.76c-.35-.83-.69-1.66-1-2.48a116.54 116.54 0 01-7.41-12.56q-.6-1.17-1.17-2.37c-.38-.78-.74-1.57-1.11-2.37-.14-.32-.29-.63-.43-.95a121.5 121.5 0 01-4.49-11.66q-.37-1.12-.72-2.25a83.89 83.89 0 00.7 16.15c.09.62.18 1.25.28 1.89q.64 4.08 1.75 8.57c.06.22.11.44.17.67s.16.57.24.86a46 46 0 002.81 7.62 40.33 40.33 0 002.34 4.25 37.38 37.38 0 003.27 4.37c.43.49.87 1 1.3 1.4a32.88 32.88 0 006.14 4.95 33.22 33.22 0 003.19 1.71zm-21.63-26.22q-.92-3.83-1.49-7.34c-2.59 1.28-5.1 3.1-4.76 4.3.41 1.44 3.48 2.5 6.27 3.08zm-1.22-36.82l.12.57c.14.65.27 1.29.42 1.94.1.43.21.86.31 1.29s.21.83.32 1.25c.16.61.31 1.22.48 1.83a119 119 0 004.51 13.25c.33.81.68 1.6 1 2.4.17.38.32.77.49 1.15s.4.85.59 1.28c1.4 3.05 2.91 6 4.5 8.82a110.67 110.67 0 005 8.05 103.14 103.14 0 009.7 12.25l1.26 1.32c.41.43.83.86 1.25 1.27a77.15 77.15 0 0016.6 12.79l1.14.64c.38.2.76.38 1.13.58a56.09 56.09 0 007.4 3.11l1.21.37 1.21.35a39.34 39.34 0 0010.32 1.45 31.46 31.46 0 0011.93-2.29c.32-.12.63-.25.95-.39s.33-.17.51-.25c.45-.21.89-.42 1.33-.66a31.17 31.17 0 005.59-3.81c.55-.47 1.09-1 1.61-1.47.15-.15.31-.29.46-.45l.56-.56q.62-.66 1.2-1.35l.63-.78.51-.65c.2-.26.41-.52.61-.79s.38-.56.57-.83a45.17 45.17 0 004.71-9c.12-.31.24-.63.35-1s.25-.63.36-1c3.52-10.16 4.41-22.62 2.5-35.93-.14.15-.26.31-.39.45l-15.05 14.15a1 1 0 01-.29.52l-8.7 7.93-.18.18a1 1 0 01-.17.12 12.78 12.78 0 01-1.81.91 19.3 19.3 0 01-6 1.58c-.7.07-1.41.1-2.13.1h-.1c-.65 0-1.32 0-2-.1h-.34c-.61-.06-1.22-.16-1.84-.27l-.55-.11c-.56-.12-1.12-.25-1.68-.41l-.75-.22c-.5-.15-1-.32-1.52-.51l-.44-.15c-11.18-4.27-21.69-15.43-28.12-29.86-9.26-20.8-7.31-43.07 4.54-51.8a.94.94 0 01.22-.12L405 70.82a.86.86 0 01.17 0l16-6.58.17-.07q-2.46-1.94-5-3.62c-9.08-6-18.19-9.1-26.62-9.1a31.49 31.49 0 00-12.92 2.69c-11.53 5.14-19.23 17.1-21.69 33.68a89.24 89.24 0 001.24 30.94zm104.53 9.74c4.93-9 4.47-23.4-1.64-37.16-6.84-15.3-18.87-25.63-29.53-26.49a16.55 16.55 0 00-4.23.17c-.42.07-.83.16-1.24.26s-.77.22-1.14.35-.78.29-1.16.46l-16.16 6.64c-9.65 7.4-11.56 25.4-4.88 43.05.43 1.16.91 2.32 1.42 3.47 4.55 10.21 11.33 18.69 19.07 23.88s15.24 6.36 21.47 3.58h.17l14.9-14a18 18 0 001.39-1.67c.29-.38.54-.8.81-1.21s.53-.79.77-1.29zm-188.32 27.68l-89 31.75 4.69 13.54a40.2 40.2 0 012.87 7.31c1 2.95 2.1 6.29 3.59 9.92a30.48 30.48 0 007.06 10 41.48 41.48 0 005.61 4.55 23.5 23.5 0 01.38-10.63 1 1 0 01.33-1.09 18.56 18.56 0 011.28-3c1-1.8 2.08-2.61 3.28-2.42.8.13 1.67.64 2.6 2.48l21.6-8.63a1 1 0 01.74 1.86L216 220.45a59.49 59.49 0 012.27 9.29 32.31 32.31 0 001.73 5.93 49.19 49.19 0 006.18 11.2l67.92-28.6 1-.41 1-.42 6.55-2.76-6.67-13-1-2-1-2zm21.61 64.3l-66.68 28.07c11.49 14.42 28.83 20.34 37 22.41a73.86 73.86 0 0022 2.3c4.95-7.23 8-15.59 7.93-23.4zm-32-69a3.14 3.14 0 00-3.61-1.78 2.36 2.36 0 00-1.11 3.39 3.09 3.09 0 003.61 1.78 2.29 2.29 0 001.15-3.41zm-8.78 3a3 3 0 00-3.56-1.78c-1.34.39-1.84 1.94-1.17 3.39a3.06 3.06 0 003.56 1.78 2.37 2.37 0 001.21-3.41zm-8.79 3a3 3 0 00-3.56-1.83 2.44 2.44 0 00-1.17 3.44 3.07 3.07 0 003.56 1.84 2.4 2.4 0 001.21-3.47zM60.51 375c0 .11 0 .21.05.32l.16-.07zm246.35-63c-5.14-6.5-9.68-16.06-9.13-29.33a58.21 58.21 0 011.08-8.95 2.21 2.21 0 01.05-.25 68.65 68.65 0 01-7 1.25c-1.44.18-2.91.32-4.43.42-.4 0-.81 0-1.22.06h-3.31a80.84 80.84 0 01-45.08-14.2 60.85 60.85 0 01-6.12-5 58.35 58.35 0 01-4.72-5c-.48-.58-.95-1.15-1.39-1.72-.22-.27-.42-.55-.62-.82s-.42-.55-.61-.83a51.61 51.61 0 01-6.19-11.25 34.65 34.65 0 01-1.84-6.31c-.05-.26-.09-.51-.14-.77a56.65 56.65 0 00-2-8.13 15.35 15.35 0 00-.78-1.84c-.58-1.11-1-1.24-1.06-1.25s-.55.2-1.21 1.4c-.16.3-.29.62-.43.93a16.46 16.46 0 00-1 2.54 21.41 21.41 0 00.2 12.15 1 1 0 01-1.43 1.18 38.11 38.11 0 01-5.32-3.66 39.17 39.17 0 01-6.37-6.47 32.2 32.2 0 01-2.16-3.18l-.07-.12a27.09 27.09 0 01-1.7-3.41c-1.53-3.7-2.71-7.23-3.65-10.06s-2-6-2.82-7.16a1.6 1.6 0 00-.49-.51c-1.69.55-3.37 9-1.4 15.21 1.84 5.79 6.66 14.75 6.71 14.83a1 1 0 01-.4 1.36 1 1 0 01-1.36-.4c-.2-.38-5-9.22-6.85-15.19a25.8 25.8 0 01-.89-9.37h-.15a1 1 0 00-.89.12c-.45.27-1.53 1.37-1.84 5.56-.59 7.84 7 25.88 7 26.06a1 1 0 01-.54 1.31 1 1 0 01-.38.08 1 1 0 01-.93-.62c-.17-.41-2.45-5.85-4.4-12.07.57 8 3.21 20.42 15.7 35.34A138.83 138.83 0 00219 286.49l1.14.83 1.14.84h.06l.31.23.9.62.91.63c1.64 1.14 3.35 2.27 5.1 3.39l.86.55.87.54c.65.41 1.3.82 2 1.22 3.07 1.87 6.11 3.54 9.12 5.05l1.19.59 1.2.58a113.78 113.78 0 0053.59 11.26c3.38-.1 6.61-.4 9.47-.82zm110.7 21.89c-9.82 5-19.72 5.89-29.49 2.54l4.54 15.44 14.54 6.91 9.12-12.19zm5.52-210.86a1 1 0 10-1.58 1.23 44.9 44.9 0 005.63 6.08 1 1 0 00.67.25 1 1 0 00.66-1.75 42.16 42.16 0 01-5.38-5.78zm-6.08-9.74a62.002 62.002 0 01-2.07-4.62 61.25 61.25 0 01-2.74-8.71 57 57 0 01-1-5.71 1 1 0 10-2 .25 60.08 60.08 0 004.08 15.36c.24.57.47 1.14.72 1.71a60.31 60.31 0 004.24 8 1 1 0 101.69-1.07 58.74 58.74 0 01-2.92-5.21zM248.17 398.94c1.46 4.43-1 14.76-7.72 24.39-5.14 7.39-16.82 19.91-37.22 20.68a1 1 0 01-.66-.26h-.82a22.44 22.44 0 01-8.59-1.85 1 1 0 01-.5-.47 216.45 216.45 0 01-11.86-28.07l.51-1.58.53-1.62a213.84 213.84 0 0012.44 30 20.36 20.36 0 007.35 1.54c-3-7.38-11.23-28.92-6.69-33a4.13 4.13 0 011.51-.88 46.9 46.9 0 01-1.54-5.67 131 131 0 01-1.81-26.84l1.21-3.72 1.52-4.7c-.08.5-.16 1-.23 1.5a124 124 0 001.27 33.39 46.52 46.52 0 001.71 6.08c2.62.88 4.81 4.78 6.12 7.66a159.61 159.61 0 014.37-16c4.43-13.17 9.34-20 14.6-20.37a7 7 0 016 2.34c4 4.5 3.33 14.38 2.75 19.12 3-2.36 8.67-6.14 12.52-5.12a4.71 4.71 0 013.23 3.45zm-9.37 23.24c6.61-9.5 8.59-19.23 7.48-22.61a2.79 2.79 0 00-1.9-2.05c-3.53-.93-10.38 4.28-12.72 6.37A1 1 0 01230 403c0-.15 2.69-14.88-1.89-20.05a5 5 0 00-4.35-1.68c-8.89.6-15.87 27.63-17.81 38a1 1 0 01-.75.77.42.42 0 01-.16 0 1 1 0 01-1-.66c-.24-.71-.56-1.52-.92-2.35a25.87 25.87 0 00-3-5.37 6.11 6.11 0 00-1.81-1.67 2.57 2.57 0 00-.47-.19 1.38 1.38 0 00-.37-.05 1.66 1.66 0 00-1.18.54c-2.78 2.48 2.58 19.49 7.46 31.36l.14.33q1.72-.09 3.36-.3c.87-.1 1.72-.24 2.56-.39 15.45-2.81 24.65-12.86 28.99-19.11z" fill="#171a22"/><script xmlns="" id="transcript-settings"/><script xmlns=""/><script xmlns=""/><script xmlns=""/><script xmlns=""/></svg>